# xmcd
#
# Track frame offsets: 
#        150
#        11765
#        23951
#        37959
#        50413
#        65308
#        76704
#        89140
#        102677
#        115314
#        128692
#        140913
#        154056
#        167298
#        181099
#        194706
#        208666
#        221866
#        235323
#        249451
#        262695
#        276697
#        289548
#        303484
#        315665
#
# Disc length: 4397 seconds
#
# Revision: 0
# Processed by: cddbd v1.5.2PL0 Copyright (c) Steve Scherf et al.
# Submitted via: ExactAudioCopy v0.99pb5
#
DISCID=70112b19
DTITLE=Barbara Demick - Nothing to Envy [4 of 10]
DYEAR=2010
DGENRE=Audiobook
TTITLE0=04-01
TTITLE1=04-02
TTITLE2=04-03
TTITLE3=04-04
TTITLE4=04-05
TTITLE5=04-06
TTITLE6=04-07
TTITLE7=04-08
TTITLE8=04-09
TTITLE9=04-10
TTITLE10=04-11
TTITLE11=04-12
TTITLE12=04-13
TTITLE13=04-14
TTITLE14=04-15
TTITLE15=04-16
TTITLE16=04-17
TTITLE17=04-18
TTITLE18=04-19
TTITLE19=04-20
TTITLE20=04-21
TTITLE21=04-22
TTITLE22=04-23
TTITLE23=04-24
TTITLE24=04-25
EXTD=
EXTT0=
EXTT1=
EXTT2=
EXTT3=
EXTT4=
EXTT5=
EXTT6=
EXTT7=
EXTT8=
EXTT9=
EXTT10=
EXTT11=
EXTT12=
EXTT13=
EXTT14=
EXTT15=
EXTT16=
EXTT17=
EXTT18=
EXTT19=
EXTT20=
EXTT21=
EXTT22=
EXTT23=
EXTT24=
PLAYORDER=
